Coordinates
version=1
nRows=13
nColumns=22
inDegrees=yes

Units are S.I. units (second, meters, Newtons, ...)
If the header above contains a line with 'inDegrees', this indicates whether rotational values are in degrees (yes) or radians (no).

endheader
time	pelvis_tilt	pelvis_list	pelvis_rotation	pelvis_tx	pelvis_ty	pelvis_tz	hip_flexion_r	hip_adduction_r	hip_rotation_r	knee_angle_r	ankle_angle_r	subtalar_angle_r	hip_flexion_l	hip_adduction_l	hip_rotation_l	knee_angle_l	ankle_angle_l	subtalar_angle_l	lumbar_extension	lumbar_bending	lumbar_rotation
      3.19000000	      1.74832990	     -0.19860854	     97.79358395	      0.40078782	      0.92592465	     -0.29826364	     18.93723216	      0.63505023	    -15.14723415	    -20.27753664	      2.19585946	      4.65792149	     -5.03511823	      0.98878814	     16.61724877	    -41.18812791	    -15.60870113	      0.95814119	     -4.01310753	     -1.29652631	    -15.41098933
      3.20000000	      1.71088991	     -0.17913679	     98.53150954	      0.40108034	      0.92691361	     -0.30463184	     18.34815921	      0.54558867	    -15.77566671	    -20.17184341	      2.58691990	      4.46223401	     -3.34695148	      0.73000354	     15.75593212	    -43.62944505	    -18.34849556	      0.37190834	     -4.13116719	     -1.18796603	    -15.25506278
      3.21000000	      1.73956223	     -0.16122430	     99.21687298	      0.40148752	      0.92772624	     -0.31074651	     17.80840925	      0.55513411	    -16.33927361	    -20.08621468	      2.94638694	      4.32414765	     -1.52786706	      0.33510142	     14.70633810	    -46.14150388	    -21.04798514	     -0.37224632	     -4.24753055	     -1.01141836	    -15.02611074
      3.22000000	      1.83244745	     -0.13324008	     99.84244658	      0.40202196	      0.92840131	     -0.31666110	     17.29593080	      0.66939648	    -16.81460955	    -20.00339439	      3.31006650	      4.22759977	      0.36303998	     -0.19110598	     13.55319231	    -48.66093605	    -23.59256917	     -1.21932341	     -4.36476252	     -0.76780326	    -14.72703125
      3.23000000	      1.98968459	     -0.07313397	    100.38077603	      0.40269075	      0.92900336	     -0.32241150	     16.79793869	      0.88979878	    -17.21939286	    -19.93717787	      3.58820050	      4.15096596	      2.23825976	     -0.82529463	     12.39607817	    -51.11211393	    -25.79892053	     -1.92515057	     -4.49998821	     -0.45044394	    -14.30759571
      3.24000000	      2.16626416	      0.01872210	    100.83965386	      0.40347750	      0.92957819	     -0.32806900	     16.27034936	      1.17704551	    -17.53441960	    -19.82894379	      3.90408748	      4.08695197	      4.03888652	     -1.49737502	     11.31412216	    -53.43610564	    -27.46621267	     -2.47799519	     -4.64485312	     -0.11636952	    -13.82924294
      3.25000000	      2.35453393	      0.15199402	    101.20223639	      0.40436065	      0.93016060	     -0.33362819	     15.71422888	      1.51774618	    -17.77821418	    -19.70116431	      4.16477136	      4.01819296	      5.71365667	     -2.16335240	     10.36561569	    -55.59938612	    -28.42551186	     -2.68870914	     -4.81383336	      0.23406354	    -13.26578586
      3.26000000	      2.54619699	      0.34879710	    101.47792363	      0.40531203	      0.93081168	     -0.33908560	     15.09021017	      1.90508870	    -17.96383434	    -19.53114684	      4.35880490	      3.95707209	      7.22097446	     -2.79992936	      9.57788796	    -57.58520145	    -28.61537351	     -2.52547969	     -5.03695919	      0.59818832	    -12.62298389
      3.27000000	      2.73220637	      0.55374849	    101.67311044	      0.40631173	      0.93142656	     -0.34439215	     14.46484778	      2.31362417	    -18.06801970	    -19.33827699	      4.57799811	      3.87256062	      8.63526291	     -3.37951255	      8.93014676	    -59.42043514	    -28.02921053	     -2.28890132	     -5.25600437	      0.95272326	    -11.90541841
      3.28000000	      2.90556223	      0.77546836	    101.79602313	      0.40735934	      0.93204278	     -0.34958078	     13.81085640	      2.73271055	    -18.14889926	    -19.09769706	      4.76533474	      3.75606821	      9.94316897	     -3.91754381	      8.37442383	    -61.08715110	    -26.78565923	     -1.96964657	     -5.47729868	      1.28638387	    -11.13639353
      3.29000000	      3.08272109	      1.02346175	    101.85940321	      0.40846074	      0.93265425	     -0.35460216	     13.12899627	      3.17432214	    -18.22551684	    -18.82169603	      4.88483511	      3.55679521	     11.16156264	     -4.45036182	      7.88928475	    -62.60868709	    -25.05145073	     -1.53758457	     -5.72283002	      1.62325454	    -10.35661681
      3.30000000	      3.23092695	      1.29543374	    101.87078245	      0.40957739	      0.93328709	     -0.35945996	     12.39459291	      3.61272406	    -18.22563357	    -18.47947415	      5.05977043	      3.39658811	     12.26864297	     -4.91282881	      7.50806964	    -63.95723466	    -22.93655053	     -1.21137787	     -5.99672807	      1.92237845	     -9.53889349
      3.31000000	      3.38835154	      1.59191965	    101.84621952	      0.41073126	      0.93391552	     -0.36414474	     11.62738685	      4.07454861	    -18.23711962	    -18.09342534	      5.17680049	      3.17684650	     13.29925780	     -5.38125650	      7.18916480	    -65.15653158	    -20.65584814	     -0.89409240	     -6.29659328	      2.22601264	     -8.72010683
